<svg width="100" height="100" viewBox="0 0 100 100" fill="none" xmlns="http://www.w3.org/2000/svg">
<path d="M73.8041 17.7641L71.6129 30.1495L64.8486 35.8658H47.6996L45.9847 45.8694H60.7519L57.5126 63.9711H42.7454L39.2203 84.4546H18.2605L29.979 17.7641H73.8041ZM81.1401 84.4546H63.9911L66.9445 67.3056H84.0935L81.1401 84.4546Z" fill="url(#paint0_linear_2307_1486)" style="mix-blend-mode:lighten"/>
<g style="mix-blend-mode:hard-light">
<path d="M76.2592 15.3095L74.068 27.6949L67.3036 33.4112H50.1546L48.4397 43.4148H63.2069L59.9677 61.5165H45.2005L41.6754 82H20.7156L32.434 15.3095H76.2592ZM83.5952 82H66.4462L69.3996 64.851H86.5486L83.5952 82Z" fill="url(#paint1_linear_2307_1486)"/>
<path d="M76.2592 15.3095L74.068 27.6949L67.3036 33.4112H50.1546L48.4397 43.4148H63.2069L59.9677 61.5165H45.2005L41.6754 82H20.7156L32.434 15.3095H76.2592ZM83.5952 82H66.4462L69.3996 64.851H86.5486L83.5952 82Z" fill="url(#paint2_linear_2307_1486)"/>
</g>
<defs>
<linearGradient id="paint0_linear_2307_1486" x1="53.5" y1="27.4546" x2="53.5" y2="79.4546" gradientUnits="userSpaceOnUse">
<stop stop-color="#E4E5F3"/>
<stop offset="1" stop-color="#9293A0"/>
</linearGradient>
<linearGradient id="paint1_linear_2307_1486" x1="94.4512" y1="9.51686" x2="17.5458" y2="88.5811" gradientUnits="userSpaceOnUse">
<stop stop-color="#D8E1FF"/>
<stop offset="1" stop-color="#3D4DEF"/>
</linearGradient>
<linearGradient id="paint2_linear_2307_1486" x1="55.9551" y1="25" x2="55.9551" y2="77" gradientUnits="userSpaceOnUse">
<stop stop-color="#ABB0DF"/>
<stop offset="1" stop-color="#1A2588"/>
</linearGradient>
</defs>
</svg>
